Motion_pl10
version=1
nRows=13
nColumns=43
inDegrees=yes
endheader
time	pelvis_tilt	pelvis_list	pelvis_rotation	pelvis_tx	pelvis_ty	pelvis_tz	hip_flexion_r	hip_adduction_r	hip_rotation_r	knee_angle_r	ankle_angle_r	subtalar_angle_r	mtp_angle_r	hip_flexion_l	hip_adduction_l	hip_rotation_l	knee_angle_l	ankle_angle_l	subtalar_angle_l	mtp_angle_l	lumbar_extension	lumbar_bending	lumbar_rotation	neck_flexion	neck_lateral_bending	neck_rotation	arm_flex_r	arm_add_r	arm_rot_r	elbow_flex_r	pro_sup_r	wrist_flex_r	wrist_dev_r	hand_finger_flex_r	arm_flex_l	arm_add_l	arm_rot_l	elbow_flex_l	pro_sup_l	wrist_flex_l	wrist_dev_l	hand_finger_flex_l
      0.83250000	      2.41390546	      0.95434957	     88.33011878	     -0.00197916	      0.78903441	      0.49462628	     48.71847012	     -5.79001383	     -8.73559945	    -60.47837662	     15.77115970	      6.77179828	     -5.22708005	     51.47911908	     -9.55174181	     -0.21814837	    -68.24768056	     16.80047480	      1.05670171	     -9.60811899	    -29.50170869	      3.93864175	      2.98579514	    -16.61993115	      0.39680487	      1.75533607	    -58.24697322	     -6.92565224	    -55.25353406	     41.40408636	     84.12463934	    -29.98519049	    -18.14043232	     28.10545562	    -60.07817363	    -12.88443271	    -45.35660106	     32.53424593	     91.44234223	    -41.07492101	     -2.63703807	     77.79695488
      0.83500000	      2.46301568	      1.06714694	     88.28435800	     -0.00243169	      0.77932673	      0.49246369	     49.63088703	     -5.78244579	     -8.58395761	    -62.70749427	     18.01157435	      6.13829274	     -5.13662793	     52.13058673	     -9.44172207	     -0.02599239	    -70.14423007	     19.31049487	      0.45297232	     -9.42548458	    -30.24222301	      4.00810089	      3.21092294	    -15.49863272	      0.49975715	      1.67876370	    -57.38278231	     -7.19333747	    -54.59625246	     42.05906061	     84.52301618	    -30.10054723	    -18.46305485	     28.11817208	    -58.57038822	    -13.09105421	    -44.71646178	     33.13992929	     91.66522567	    -40.81341231	     -2.70649736	     77.92314925
      0.83750000	      2.47667815	      1.04889595	     88.22215767	     -0.00279684	      0.76932810	      0.49041133	     50.85041814	     -5.78839346	     -8.32685426	    -65.11652016	     19.84928194	      5.58114489	     -5.11072663	     52.97794276	     -9.33874329	      0.11747215	    -72.09346574	     21.54734015	     -0.06311197	     -9.31122541	    -30.83216729	      4.04828954	      3.39029754	    -14.37429743	      0.35663142	      1.68715006	    -56.49543734	     -7.49844720	    -53.96418747	     42.76147470	     84.88229315	    -30.39073461	    -18.80541731	     28.11513475	    -57.15111795	    -13.24579942	    -44.12430673	     33.90584219	     91.79197760	    -40.54048942	     -2.85278161	     78.13890376
      0.84000000	      2.19866718	      0.26279485	     88.07756827	     -0.00270542	      0.75758066	      0.48839865	     53.24631861	     -5.90023529	     -7.70547780	    -67.87848051	     21.20509964	      5.17958422	     -5.62296487	     54.73180079	     -9.19067386	     -0.00024808	    -74.15594136	     23.56713981	     -0.05218885	     -9.69845781	    -30.44442952	      3.76572029	      3.38694890	    -13.62527270	      0.06167921	      1.59578078	    -55.63359844	     -7.84233785	    -53.05145044	     43.42517448	     85.26352615	    -31.66032365	    -19.34133065	     28.16962938	    -55.99724885	    -13.54799328	    -43.18346390	     34.52335848	     91.67546600	    -39.96263859	     -3.19780083	     78.86069827
      0.84250000	      2.23582812	      0.27512302	     88.07047336	     -0.00322040	      0.74778276	      0.48640679	     54.64225097	     -5.98561922	     -7.50352006	    -70.44956095	     22.14722151	      4.73146848	     -5.68896704	     55.62701587	     -9.02149714	      0.19897065	    -76.07713767	     25.34665489	     -0.83408699	     -9.68591161	    -31.08957306	      3.84653892	      3.60493537	    -12.43031771	      0.10746253	      1.70416956	    -54.78590059	     -8.09383272	    -52.51774444	     44.29914448	     85.40748551	    -31.83426233	    -19.61106425	     28.32409025	    -54.46559802	    -13.67338304	    -42.85990281	     35.40800655	     91.61944511	    -39.90280761	     -3.40551332	     79.06816684
      0.84500000	      1.85696084	     -0.85921953	     88.00074804	     -0.00341014	      0.73524873	      0.48436169	     57.66916631	     -6.25230402	     -6.83931214	    -73.38403788	     22.67961455	      4.33530666	     -6.82818215	     57.89755722	     -8.66017840	      0.08150504	    -78.18606266	     26.81530560	     -1.60745053	    -11.06366006	    -30.22259315	      3.49919854	      3.45211952	    -11.95926919	      0.07127937	      1.78963391	    -54.01286119	     -8.54699672	    -51.42005367	     45.04811456	     84.95256671	    -33.38169040	    -20.12928677	     29.52136897	    -53.36505163	    -13.89858690	    -42.07685613	     36.09013969	     90.79235920	    -39.99973686	     -4.16926935	     80.42613926
      0.84750000	      1.90604727	     -0.69290057	     88.07584597	     -0.00379891	      0.72591111	      0.48248833	     59.05335654	     -6.42720590	     -6.69248345	    -76.01363933	     22.89777534	      4.16314098	     -6.90056435	     58.72149315	     -8.48259191	      0.34479302	    -80.07975342	     28.06162452	     -2.01038711	    -11.08450626	    -31.09791355	      3.59780674	      3.54319650	    -10.46138635	     -0.01724960	      1.90917204	    -53.00583024	     -8.82823528	    -51.00263784	     45.96001356	     85.08600821	    -33.53645783	    -20.43252065	     29.69272082	    -51.89050235	    -14.08671505	    -41.55231469	     37.07433579	     90.88321770	    -39.87085855	     -4.35979175	     80.66692308
      0.85000000	      1.65994621	     -1.36173074	     88.20668291	     -0.00428470	      0.71454131	      0.48045027	     61.59760438	     -6.85007622	     -6.29575956	    -78.86958947	     22.75551695	      3.97925419	     -7.39853005	     60.57261330	     -8.05653549	      0.44039192	    -82.08516892	     29.04104937	     -2.49826965	    -12.02892421	    -30.82771820	      3.48683482	      3.35830925	     -9.64045111	     -0.13769496	      1.91845197	    -52.12620359	     -9.15483680	    -50.33649374	     46.84002756	     84.84392758	    -34.70222197	    -20.99054821	     30.80084555	    -50.60608859	    -14.40452873	    -40.81182772	     37.80146084	     90.51029458	    -39.73031879	     -4.84785761	     81.99108825
      0.85250000	      1.73852630	     -1.17559467	     88.26189603	     -0.00465070	      0.70545355	      0.47846808	     62.97945734	     -7.02647668	     -6.17512928	    -81.36030876	     22.56963723	      3.99577580	     -7.44972116	     61.43770873	     -7.90736358	      0.71006023	    -83.98351583	     29.99569499	     -2.87987159	    -12.06959511	    -31.72581978	      3.59513870	      3.43518752	     -8.15852373	     -0.19575252	      2.04109470	    -51.07170904	     -9.49312519	    -50.01299172	     47.82446580	     84.94853830	    -34.84199206	    -21.29032608	     31.01767577	    -49.17275837	    -14.53725422	    -40.37040512	     38.92594359	     90.59957210	    -39.64997187	     -5.07209159	     82.25266846
      0.85500000	      1.77552176	     -1.06936400	     88.36068733	     -0.00500585	      0.69614549	      0.47646775	     64.49571846	     -7.28466125	     -6.04770347	    -83.86021828	     22.20235735	      4.02723720	     -7.49072070	     62.45910222	     -7.70465746	      0.98273882	    -85.89571269	     30.72193449	     -3.21000090	    -12.13766905	    -32.50077424	      3.68930947	      3.44483588	     -6.74704773	     -0.24561158	      2.14073377	    -50.02445119	     -9.81808754	    -49.73903907	     48.86506594	     85.05752069	    -35.05148796	    -21.63118033	     31.27004308	    -47.75377241	    -14.72474600	    -39.90714517	     40.00858145	     90.69413848	    -39.48998579	     -5.30208929	     82.64037357
      0.85750000	      1.69615408	     -1.69998249	     88.54989009	     -0.00553175	      0.68521884	      0.47436308	     66.89382633	     -7.68229293	     -5.82417986	    -86.38745286	     21.68533599	      4.02243756	     -7.34759925	     64.40398171	     -7.27444072	      1.29379008	    -87.89155510	     31.16688901	     -3.83450481	    -13.39554076	    -32.27646429	      3.74791620	      3.30301174	     -5.93645812	     -0.42083866	      2.19953867	    -48.96657689	    -10.25027644	    -49.28924053	     49.61123324	     84.75977853	    -36.43672480	    -22.23440658	     33.78609697	    -46.42460726	    -14.99610415	    -39.39133290	     40.87459253	     90.53553893	    -39.73555135	     -6.01193883	     84.94334428
      0.86000000	      1.77793365	     -1.38658442	     88.62341382	     -0.00584115	      0.67659772	      0.47230194	     68.07623731	     -7.90697949	     -5.74761445	    -88.66937362	     21.28663021	      4.08009608	     -7.33843113	     65.23259349	     -7.16151235	      1.54410364	    -89.79131748	     31.65276653	     -4.01474071	    -13.42069425	    -33.30207781	      3.85949419	      3.33381677	     -4.47777988	     -0.33304222	      2.29372161	    -47.92732717	    -10.58071336	    -49.06913828	     50.83845635	     84.92964577	    -36.53140922	    -22.60589627	     33.98565570	    -44.95996830	    -15.18624049	    -38.93084972	     42.00275923	     90.68164413	    -39.62409393	     -6.18237805	     85.13074298
      0.86250000	      1.85508314	     -1.13984728	     88.70463849	     -0.00610313	      0.66799549	      0.47020026	     69.25702444	     -8.12020681	     -5.66052313	    -90.82302244	     20.92679832	      4.10968473	     -7.30338804	     66.16165651	     -7.01692442	      1.83221508	    -91.70641281	     32.01821981	     -4.24257721	    -13.44877297	    -34.24847442	      3.96967775	      3.36582198	     -3.01154725	     -0.40948702	      2.40041466	    -46.77046776	    -10.93500570	    -48.93151560	     51.91951914	     85.11161576	    -36.63557312	    -22.95749394	     34.22648537	    -43.52729085	    -15.40531804	    -38.48089029	     43.20847066	     90.85069546	    -39.46589291	     -6.37901162	     85.42658643
